<svg width="24" height="24" viewBox="0 0 24 24" fill="none" xmlns="http://www.w3.org/2000/svg">
<path d="M8.85504 17.4936C8.85504 17.568 8.76694 17.6276 8.65585 17.6276C8.52944 17.6387 8.44133 17.5792 8.44133 17.4936C8.44133 17.4191 8.52944 17.3596 8.64052 17.3596C8.75544 17.3484 8.85504 17.408 8.85504 17.4936ZM7.66371 17.3261C7.6369 17.4005 7.71351 17.4861 7.82843 17.5085C7.92802 17.5457 8.04294 17.5085 8.06593 17.434C8.08891 17.3596 8.01613 17.274 7.90121 17.2405C7.80161 17.2144 7.69052 17.2516 7.66371 17.3261ZM9.35685 17.2628C9.24577 17.2889 9.16915 17.3596 9.18065 17.4452C9.19214 17.5196 9.29173 17.568 9.40665 17.542C9.51774 17.5159 9.59435 17.4452 9.58286 17.3707C9.57137 17.3 9.46794 17.2516 9.35685 17.2628ZM11.8774 3C6.56431 3 2.5 6.91929 2.5 12.0817C2.5 16.2095 5.17379 19.7417 8.99294 20.9848C9.48327 21.0704 9.65565 20.7764 9.65565 20.5345C9.65565 20.3037 9.64415 19.0308 9.64415 18.2491C9.64415 18.2491 6.9627 18.8074 6.3996 17.14C6.3996 17.14 5.9629 16.0569 5.33468 15.7777C5.33468 15.7777 4.45746 15.1934 5.39597 15.2045C5.39597 15.2045 6.3498 15.279 6.8746 16.1648C7.71351 17.6015 9.11936 17.1884 9.66714 16.9427C9.75524 16.3472 10.0042 15.934 10.28 15.6884C8.13871 15.4576 5.97823 15.1561 5.97823 11.5755C5.97823 10.552 6.26935 10.0384 6.88226 9.38328C6.78266 9.14134 6.45706 8.14384 6.98185 6.85602C7.78246 6.61409 9.625 7.86097 9.625 7.86097C10.3911 7.65253 11.2147 7.5446 12.0306 7.5446C12.8466 7.5446 13.6702 7.65253 14.4363 7.86097C14.4363 7.86097 16.2788 6.61037 17.0794 6.85602C17.6042 8.14756 17.2786 9.14134 17.179 9.38328C17.7919 10.0421 18.1673 10.5557 18.1673 11.5755C18.1673 15.1673 15.9111 15.4539 13.7698 15.6884C14.1222 15.9824 14.421 16.5407 14.421 17.4154C14.421 18.6697 14.4095 20.2218 14.4095 20.527C14.4095 20.769 14.5857 21.063 15.0722 20.9774C18.9028 19.7417 21.5 16.2095 21.5 12.0817C21.5 6.91929 17.1905 3 11.8774 3ZM6.22339 15.8373C6.17359 15.8745 6.18508 15.9601 6.2502 16.0308C6.31149 16.0904 6.3996 16.1164 6.4494 16.068C6.49919 16.0308 6.4877 15.9452 6.42258 15.8745C6.36129 15.8149 6.27319 15.7889 6.22339 15.8373ZM5.80968 15.5358C5.78286 15.5842 5.82117 15.6437 5.89778 15.6809C5.95907 15.7182 6.03569 15.707 6.0625 15.6549C6.08931 15.6065 6.05101 15.547 5.9744 15.5097C5.89778 15.4874 5.83649 15.4986 5.80968 15.5358ZM7.05081 16.8608C6.98952 16.9092 7.0125 17.0209 7.1006 17.0916C7.18871 17.1772 7.2998 17.1884 7.3496 17.1288C7.3994 17.0804 7.37641 16.9688 7.2998 16.898C7.21552 16.8124 7.10061 16.8013 7.05081 16.8608ZM6.61411 16.3137C6.55282 16.3509 6.55282 16.4477 6.61411 16.5333C6.6754 16.6189 6.77883 16.6561 6.82863 16.6189C6.88992 16.5705 6.88992 16.4737 6.82863 16.3881C6.775 16.3025 6.6754 16.2653 6.61411 16.3137Z" fill="black"/>
</svg>
