<svg width="24" height="24" viewBox="0 0 24 24" fill="none" xmlns="http://www.w3.org/2000/svg">
<path d="M7.02911 19.5H3.29732V7.48232H7.02911V19.5ZM5.16121 5.843C3.9679 5.843 3 4.85458 3 3.66125C3 3.08805 3.2277 2.53833 3.633 2.13302C4.03831 1.7277 4.58802 1.5 5.16121 1.5C5.73439 1.5 6.2841 1.7277 6.68941 2.13302C7.09471 2.53833 7.32241 3.08805 7.32241 3.66125C7.32241 4.85458 6.35411 5.843 5.16121 5.843ZM20.996 19.5H17.2722V13.6499C17.2722 12.2556 17.2441 10.4677 15.332 10.4677C13.3918 10.4677 13.0945 11.9824 13.0945 13.5494V19.5H9.3667V7.48232H12.9458V9.12164H12.998C13.4963 8.17743 14.7133 7.18097 16.5289 7.18097C20.3057 7.18097 21 9.66808 21 12.8985V19.5H20.996Z" fill="black"/>
</svg>
