<svg width="24" height="24" viewBox="0 0 24 24" fill="none" xmlns="http://www.w3.org/2000/svg">
<path d="M20.4036 5.8802L22 4.33781V4H16.4714L12.5313 13.909L8.04948 4H2.2526V4.33781L4.11719 6.60556C4.29948 6.77316 4.39323 7.01931 4.36979 7.26547V16.1768C4.42708 16.4989 4.32552 16.8262 4.10156 17.0592L2 19.6334V19.966H7.95313V19.6282L5.85417 17.0619C5.74171 16.9471 5.65711 16.8077 5.60698 16.6546C5.55684 16.5016 5.54251 16.3389 5.5651 16.1794V8.47005L10.7917 19.9712H11.3984L15.8932 8.47005V17.6327C15.8932 17.8736 15.8932 17.9234 15.737 18.0831L14.1198 19.6622V20H21.9635V19.6622L20.4036 18.1198C20.2682 18.0151 20.1979 17.8396 20.2266 17.6694V6.33061C20.2131 6.24646 20.2224 6.16021 20.2536 6.08094C20.2847 6.00167 20.3366 5.93232 20.4036 5.8802V5.8802Z" fill="black"/>
</svg>
