<svg width="24" height="24" viewBox="0 0 24 24" fill="none" xmlns="http://www.w3.org/2000/svg">
<path d="M3 10.65C3 11.008 3.14223 11.3514 3.39541 11.6046C3.64858 11.8578 3.99196 12 4.35 12H5.7C7.37086 12 8.97329 12.6637 10.1548 13.8452C11.3363 15.0267 12 16.6291 12 18.3V19.65C12 20.008 12.1422 20.3514 12.3954 20.6046C12.6486 20.8578 12.992 21 13.35 21H19.65C20.008 21 20.3514 20.8578 20.6046 20.6046C20.8578 20.3514 21 20.008 21 19.65V18.3C21 9.84975 14.1503 3 5.7 3H4.35C3.99196 3 3.64858 3.14223 3.39541 3.39541C3.14223 3.64858 3 3.99196 3 4.35L3 10.65Z" fill="black"/>
</svg>
