<svg width="24" height="24" viewBox="0 0 24 24" fill="none" xmlns="http://www.w3.org/2000/svg">
<path d="M22.5403 6.69462C22.2873 5.75204 21.5418 5.0097 20.5953 4.75778C18.8796 4.3 12 4.3 12 4.3C12 4.3 5.12044 4.3 3.40474 4.75778C2.45821 5.00974 1.71273 5.75204 1.45971 6.69462C1 8.40308 1 11.9676 1 11.9676C1 11.9676 1 15.5322 1.45971 17.2407C1.71273 18.1832 2.45821 18.8947 3.40474 19.1466C5.12044 19.6044 12 19.6044 12 19.6044C12 19.6044 18.8796 19.6044 20.5953 19.1466C21.5418 18.8947 22.2873 18.1832 22.5403 17.2407C23 15.5322 23 11.9676 23 11.9676C23 11.9676 23 8.40308 22.5403 6.69462V6.69462ZM9.74998 15.204V8.73129L15.5 11.9677L9.74998 15.204V15.204Z" fill="black"/>
</svg>
