<svg width="135" height="40" xmlns="http://www.w3.org/2000/svg"><g fill="none" fill-rule="evenodd"><path d="M0 0h135v40H0z"/><path d="M135 35.993a4.07 4.07 0 0 1-1.139 2.836A3.828 3.828 0 0 1 131.126 40H3.891C1.78 40.024.024 38.214 0 35.989V4.021C.02 1.809 1.754 0 3.853 0H131.092c2.111-.022 3.865 1.79 3.887 4.014v31.972l.021.007z" fill="#1A1A1A"/><path d="M20.872 8.065c6.449 0 11.626 5.126 11.626 11.391s-5.184 11.391-11.626 11.398c-6.442.007-11.643-5.079-11.633-11.398.01-6.319 5.232-11.378 11.633-11.391zm-.568 11.945H15.88v.14a20.17 20.17 0 0 0 .523 4.005c.034.144.085.195.236.192h3.672l-.007-4.337zm0-5.424h-3.727c-.116 0-.15.047-.174.15a19.3 19.3 0 0 0-.489 3.233c-.024.318-.031.636-.048.954h4.438v-4.337zM31.38 20.01h-4.418a20.317 20.317 0 0 1-.578 4.32h3.641a.26.26 0 0 0 .185-.12 9.78 9.78 0 0 0 .862-2.208c.168-.652.271-1.32.308-1.992zm-16.595 0h-4.397v.181c.1 1.388.483 2.742 1.125 3.978a.28.28 0 0 0 .291.178h3.576a20.152 20.152 0 0 1-.595-4.337zm16.591-1.094v-.12a10.225 10.225 0 0 0-1.159-4.101.233.233 0 0 0-.246-.126H26.36l.024.109a19.3 19.3 0 0 1 .547 4.002c0 .178.051.232.236.229h3.98l.229.007zm-16.044-4.337h-3.6c-.134 0-.175.072-.222.164a10.019 10.019 0 0 0-1.057 3.243c-.044.308-.068.619-.099.923a.666.666 0 0 0 .089.017h4.195c.137 0 .151-.061.158-.174.041-.602.065-1.203.143-1.798.106-.796.26-1.575.393-2.375zm6.111 9.751h3.648c.123 0 .158-.048.185-.158.244-1.019.404-2.057.479-3.103.027-.342.037-.711.058-1.077h-4.37v4.338zm4.349-5.424a19.968 19.968 0 0 0-.513-4.167c-.034-.143-.099-.17-.232-.17h-3.618v4.337h4.363zm-5.488-9.703h-.113a3.518 3.518 0 0 0-1.771 1.169 8.631 8.631 0 0 0-1.535 2.799c-.038.095-.065.194-.096.3h3.515V9.203zM16.779 25.43c.011.053.026.106.044.157.219.513.417 1.026.684 1.538.38.816.953 1.526 1.669 2.071.332.255.718.431 1.128.513V25.43h-3.525zm8.152 0h-3.485v4.248c.052 0 .089 0 .127-.024.453-.134.87-.367 1.22-.683a6.597 6.597 0 0 0 1.614-2.29c.189-.39.342-.82.524-1.248v-.003zm-.021-11.962a9.668 9.668 0 0 0-1.333-2.673 4.27 4.27 0 0 0-1.539-1.367c-.185-.089-.38-.15-.592-.229v4.279l3.464-.01zm-.947 15.851a10.604 10.604 0 0 0 5.509-3.896H26.268a.234.234 0 0 0-.271.188c-.305.948-.736 1.85-1.282 2.683-.229.342-.489.667-.752 1.025zm-11.691-3.896a10.463 10.463 0 0 0 5.498 3.872 11.049 11.049 0 0 1-2.051-3.759c-.041-.12-.12-.109-.209-.109h-3.238v-.004zM17.77 9.627a10.426 10.426 0 0 0-5.471 3.841c.079 0 .12.021.161.021h3.078a.183.183 0 0 0 .198-.151 11.116 11.116 0 0 1 2.034-3.711zm11.654 3.862c-.742-1.422-4.295-3.914-5.471-3.845a10.599 10.599 0 0 1 2.041 3.66.238.238 0 0 0 .274.185h3.156zM39.282 13.7V9.941h.793v3.667c0 1.333.639 1.952 1.648 1.952s1.648-.619 1.648-1.952v-3.67h.804v3.759c0 1.709-1.026 2.56-2.452 2.56s-2.441-.841-2.441-2.557zM45.761 14.941c.149.45.596.736 1.067.684.54 0 .927-.212.927-.684 0-.314-.205-.509-.684-.629l-.896-.232c-.639-.164-1.087-.489-1.087-1.19 0-.803.701-1.332 1.617-1.332.995 0 1.587.488 1.751 1.281h-.763a.93.93 0 0 0-.995-.639c-.448 0-.865.212-.865.649 0 .305.202.448.629.571l.876.212c.772.202 1.149.629 1.149 1.261 0 .855-.712 1.367-1.679 1.367-.968 0-1.71-.499-1.85-1.333l.803.014z" fill="#FFF"/><path d="M52.98 14.828a1.717 1.717 0 0 1-1.819 1.443c-1.231 0-2.076-.947-2.076-2.338s.824-2.358 2.052-2.358c1.227 0 1.901.905 1.901 2.214v.274h-3.19c0 .967.55 1.555 1.313 1.555a1.03 1.03 0 0 0 1.097-.793l.722.003zm-3.112-1.343h2.394c0-.683-.366-1.261-1.119-1.261-.673.003-1.162.468-1.275 1.261zM56.389 10.792a.498.498 0 0 1-.489-.489c0-.27.222-.492.492-.492s.493.222.493.492a.5.5 0 0 1-.496.489zm.386 5.386h-.762v-4.511h.762v4.511z" fill="#FFF" fill-rule="nonzero"/><path d="M57.898 11.667h.763v.571a1.684 1.684 0 0 1 1.333-.66c1.026 0 1.587.66 1.587 1.647v2.957h-.773v-2.837c0-.629-.314-1.066-.995-1.066a1.226 1.226 0 0 0-1.149.844v3.076h-.762l-.004-4.532zM65.414 17.908l.684-1.709-1.768-4.532h.824l1.334 3.558 1.313-3.558h.793l-2.431 6.241h-.749z" fill="#FFF"/><path d="M70.984 16.271c-1.241 0-2.075-.968-2.075-2.348 0-1.381.834-2.348 2.075-2.348 1.242 0 2.076.967 2.076 2.348 0 1.38-.845 2.348-2.076 2.348zm0-4.027c-.814 0-1.303.684-1.303 1.679 0 .994.489 1.678 1.303 1.678s1.303-.684 1.303-1.678c0-.995-.489-1.675-1.303-1.675v-.004z" fill="#FFF" fill-rule="nonzero"/><path d="M77.556 16.178h-.772v-.567c-.308.415-.796.66-1.314.66-1.025 0-1.576-.66-1.576-1.648v-2.956h.773v2.837c0 .628.304 1.066.985 1.066.518-.008.975-.35 1.128-.844V11.65h.773l.003 4.528zM81.085 12.429a.963.963 0 0 0-.509-.123c-.5.009-.933.358-1.047.844v3.028h-.762v-4.511h.762v.588a1.266 1.266 0 0 1 1.118-.684c.15-.006.299.019.438.072v.786zM46.093 19.579l2.004 7.809 1.918-7.809h1.747l-2.735 10.595h-1.659L45.351 22.6l-2.052 7.584h-1.641l-2.735-10.595h1.764l1.918 7.81 2.021-7.81 1.467-.01z" fill="#FFF"/><path d="M58.748 27.802c-.26 1.521-1.368 2.556-3.231 2.556-2.144 0-3.632-1.623-3.632-3.991 0-2.297 1.505-4.027 3.598-4.027 2.161 0 3.337 1.538 3.337 3.784v.622h-5.242c.051 1.346.831 2.16 1.935 2.16.831 0 1.454-.362 1.642-1.107l1.593.003zm-5.129-2.314h3.474c-.017-.933-.554-1.709-1.607-1.709-.94.014-1.648.602-1.857 1.709h-.01zM61.894 30.188h-1.73V18.957h1.73v4.214a2.618 2.618 0 0 1 1.952-.831c2.247 0 3.56 1.815 3.56 4.009 0 2.195-1.313 4.009-3.56 4.009a2.614 2.614 0 0 1-1.952-.83v.66zm0-2.393a1.865 1.865 0 0 0 1.658 1.025c1.33 0 2.127-1.052 2.127-2.471 0-1.418-.797-2.471-2.127-2.471-.7.003-1.343.4-1.658 1.026v2.891zM80.078 27.146c0 1.985-1.368 3.042-3.594 3.042h-4.062V19.593h3.717c2.212 0 3.597.984 3.597 2.884 0 1.142-.605 1.969-1.368 2.246a2.57 2.57 0 0 1 1.71 2.423zm-3.959-3.11c1.227 0 1.884-.465 1.884-1.47s-.657-1.435-1.884-1.435h-1.953v2.905h1.953zm-1.953 4.596h2.281c1.21 0 1.867-.604 1.867-1.555 0-.95-.657-1.555-1.867-1.555h-2.281v3.11z" fill="#FFF" fill-rule="nonzero"/><path d="M85.871 24.261a1.906 1.906 0 0 0-1.026-.26 1.504 1.504 0 0 0-1.539 1.227v4.96h-1.73v-7.673h1.73v.796a1.93 1.93 0 0 1 1.71-.967c.289-.012.577.035.848.137l.007 1.78z" fill="#FFF"/><path d="M90.059 30.358c-2.161 0-3.648-1.657-3.648-4.009 0-2.351 1.501-4.009 3.648-4.009 2.148 0 3.659 1.661 3.659 4.009 0 2.348-1.484 4.009-3.659 4.009zm0-6.531c-1.244 0-1.918 1.07-1.918 2.522 0 1.453.684 2.523 1.918 2.523 1.235 0 1.919-1.07 1.919-2.523 0-1.452-.66-2.522-1.919-2.522z" fill="#FFF" fill-rule="nonzero"/><path fill="#FFF" d="M101.808 27.956l1.488-5.441h1.675l-2.229 7.673h-1.741l-1.368-5.339-1.367 5.339h-1.71l-2.229-7.673h1.73l1.487 5.441 1.347-5.441h1.573l1.344 5.441zM107.255 27.973c.192.639.759.967 1.522.967.762 0 1.313-.311 1.313-.916 0-.413-.26-.639-.899-.796l-1.59-.38c-1.088-.259-1.902-.847-1.902-2.108 0-1.367 1.228-2.393 2.903-2.393 1.799 0 2.818.865 3.078 2.263h-1.71c-.157-.503-.605-.848-1.398-.848-.606 0-1.228.277-1.228.882 0 .342.243.571.797.707l1.624.38c1.313.311 1.97 1.052 1.97 2.177 0 1.521-1.262 2.454-2.992 2.454-1.799 0-3.044-.899-3.266-2.393l1.778.004z"/><path d="M119.527 27.802c-.26 1.521-1.367 2.556-3.231 2.556-2.144 0-3.631-1.623-3.631-3.991 0-2.297 1.504-4.027 3.597-4.027 2.161 0 3.337 1.538 3.337 3.784v.622h-5.238c.051 1.346.831 2.16 1.935 2.16.831 0 1.453-.362 1.641-1.107l1.59.003zm-5.129-2.314h3.474c-.017-.933-.554-1.709-1.607-1.709-.937.014-1.644.602-1.853 1.709h-.014z" fill="#FFF" fill-rule="nonzero"/><path d="M125.234 24.261a1.902 1.902 0 0 0-1.026-.26 1.502 1.502 0 0 0-1.538 1.227v4.96h-1.73v-7.673h1.73v.796a1.93 1.93 0 0 1 1.709-.967 2.15 2.15 0 0 1 .848.137l.007 1.78z" fill="#FFF"/></g></svg>